<svg xmlns="http://www.w3.org/2000/svg" version="1.1" xmlns:xlink="http://www.w3.org/1999/xlink" xmlns:svgjs="http://svgjs.dev/svgjs" width="1000" height="1125" viewBox="0 0 1000 1125"><g transform="matrix(1,0,0,1,1.7053025658242404e-13,0)"><svg viewBox="0 0 320 360" data-background-color="#ffffff" preserveAspectRatio="xMidYMid meet" height="1125" width="1000" xmlns="http://www.w3.org/2000/svg" xmlns:xlink="http://www.w3.org/1999/xlink"><defs></defs><g id="tight-bounds" transform="matrix(1,0,0,1,-5.684341886080802e-14,0)"><svg viewBox="0 0 320 360" height="360" width="320"><g><svg></svg></g><g><svg viewBox="0 0 320 360" height="360" width="320"><g><path d="M85.508 32.884c0-1.117 0.558-2.233 1.675-2.233 1.117 0 2.233 0.558 2.234 2.233 0.558 0 1.675 0 2.233-0.558 2.233 0 4.467-0.558 6.141 0 1.675 0.558 2.792 0.558 4.467 1.117 1.675 0.558 2.792 0 3.908-0.559 2.233-0.558 3.908-1.675 6.141-2.233 1.117-0.558 1.675-0.558 2.792-0.558 1.117-0.558 2.233-0.558 3.908-1.117 2.792-0.558 5.583-1.117 7.817-2.233 2.233-1.117 4.467-1.117 6.699-1.675 1.117 0 1.675-0.558 2.792-1.117 0.558 0 0.558-0.558 1.116-1.116 1.117-0.558 1.675-1.117 2.792-0.559 0.558 0.558 1.675 0.558 2.233 0h0.559c3.35 0 6.7-0.558 10.608 0 0.558 0 1.117 0 1.116 0 1.675-1.117 3.908-1.117 6.142-1.116 0.558 0 1.675 0 2.233 0h0.558c2.233 0 4.467 0 6.142 0.558 1.675 0 2.792 0.558 4.466 1.117 1.675 0 2.792 0 4.467 0.558 1.117 0 2.233 0 3.35 0 0.558 0 1.117 0 1.116 0 2.233 0.558 4.467 0.558 6.7 0.558 1.675 0.558 3.35 1.117 5.583 1.117 0.558 0 1.117 0 1.675 0 0.558 0 1.117 0.558 1.675 0.558l0.558 0.559c2.233 0 3.908 1.117 6.142 1.116 0.558 0 1.675 0 2.233 0.559 1.675 1.117 3.908 1.675 6.141 1.675 1.117 0 1.675 0.558 2.234 1.116 1.675 0.558 2.792 1.117 4.466 1.675 1.117 0.558 2.233 0 3.35 0.558 1.675 0.558 3.908 1.117 5.583 2.792 1.117 1.117 2.233 1.117 3.908 2.233 0.558 0 1.117 0.558 1.675 1.117 1.675 1.117 3.35 2.233 5.025 2.791 0.558 0 1.117 0.558 1.675 0.559 1.675 1.117 3.35 2.792 5.583 3.908 1.117 0.558 1.675 1.117 2.792 1.675h0.558c1.675 1.675 3.908 2.792 5.583 4.466 1.675 1.675 2.792 2.792 5.025 3.909 0 0 0 0 0 0.558 0.558 1.117 1.117 1.675 2.233 2.233 1.117 0.558 1.675 1.117 2.234 1.675 1.675 1.117 3.35 2.233 4.466 3.35 0.558 0.558 1.117 1.117 2.233 2.233 0.558 0.558 1.117 1.117 1.675 1.117 2.233 0.558 3.35 2.233 5.025 3.908 1.117 1.117 2.792 2.792 3.908 3.908 0.558 0.558 1.117 1.675 1.675 2.792 1.117 3.35 2.792 6.7 4.467 9.491 0 0 0 0.558 0.558 1.117v0.558c1.117 1.117 1.675 2.792 2.792 3.908 0.558 0.558 0.558 1.117 1.116 1.675 1.117 1.675 1.675 3.908 2.792 5.583 1.675 2.792 2.792 5.583 3.908 8.375v0.558c0.558 1.117 1.117 2.233 1.675 3.908 0 1.117 1.117 2.233 1.675 3.909 0.558 2.792 2.233 5.583 2.791 8.933 0 0.558 0.558 1.117 0.559 2.233 0.558 1.675 1.117 3.35 1.675 5.025 0 0.558 0.558 1.117 1.116 1.675 1.117 1.117 1.117 2.233 1.117 3.35-0.558 2.233 0 4.467 0.558 6.699 0 0.558 0 1.117 0 2.234 0.558 2.233 1.117 5.025 1.117 7.258 0 0.558 0 1.675 0 2.233 0 1.675 0.558 3.35 1.675 5.025 0 0.558 0.558 0.558 0.558 0.558 0.558 0.558 1.117 1.675 1.675 2.233 0.558 0.558 0.558 0.558 1.117 1.117 1.117 1.117 1.675 2.233 1.675 3.908 0 0.558-0.558 1.675-0.559 2.233 0 0.558 0 1.675 0.559 2.234 0.558 0.558 0.558 1.117 0.558 1.675 0 0.558-0.558 1.117-1.117 1.116v0c-0.558 1.675-2.792 2.233-3.35 3.908-0.558 2.233-1.117 4.467-1.674 6.7-0.558 1.675-0.558 2.792-0.559 4.467 0 1.675-0.558 2.792-0.558 4.466-0.558 2.233-1.117 4.467-1.675 6.7 0 1.117-0.558 2.233-0.558 3.35 0.558 0.558 1.117 1.117 1.675 1.116 1.117 1.117 2.233 2.233 3.349 3.35 0.558 0.558 0.558 1.117 0 1.117-0.558 0.558-1.117 0.558-1.674 0.558-0.558-0.558-1.675-1.117-2.234-1.116-0.558-0.558-1.675-1.117-2.791-0.559 0 1.117-0.558 2.233-0.559 2.792-0.558 1.117-1.117 2.792-1.116 3.908-0.558 2.233-1.675 3.908-2.233 6.142-1.117 2.792-2.233 5.025-3.35 7.258-0.558 1.117-1.117 2.233-1.675 3.35v0c0 1.675-1.675 3.35-2.234 5.024-1.117 2.233-2.233 4.467-3.349 7.258-0.558 1.117-1.117 2.233-1.675 2.792-1.117 2.792-2.233 5.025-3.909 7.258-1.117 1.675-2.233 2.792-3.349 3.35-1.117 1.117-2.233 2.233-3.35 3.35-0.558 0.558-1.117 1.117-1.675 1.675-0.558 0.558-0.558 0.558-1.117 1.116-1.117 1.675-2.792 2.792-3.908 4.467-1.117 1.117-1.675 2.233-3.35 3.35-1.117 1.117-2.233 2.792-3.908 3.35-0.558 0.558-1.117 1.675-1.675 2.233-0.558 0.558-1.117 1.675-1.675 2.233 0 1.117 0.558 2.233 0.558 2.792 0 1.675-1.675 2.233-2.791 1.116-1.675-1.117-1.675-1.117-3.35 0-1.675 1.117-3.35 2.792-5.583 3.35-0.558 0-0.558 0.558-1.117 0.559-1.117 0.558-1.675 1.675-2.792 2.233-1.117 1.117-2.792 1.675-3.908 2.791-0.558 0.558-1.117 0.558-1.675 1.117-1.675 1.117-3.35 1.675-5.024 3.35-0.558 0.558-1.117 0.558-1.675 1.117 0 0.558 0 0.558 0 1.116 0 1.117-1.117 2.233-2.792 1.675-1.675-0.558-2.792 0-4.466 0-1.675 0.558-3.35 1.675-5.025 2.233-0.558 0-1.117 0.558-1.675 1.117-1.675 1.117-3.35 1.675-5.025 2.233-1.117 0-2.233 1.117-3.35 1.117-0.558 0-1.117 0.558-1.675 0.558h-0.558c-2.233 1.675-4.467 2.792-6.7 4.467-0.558 0-0.558 0.558-1.117 1.116-0.558 1.117-1.117 1.675-2.233 1.675-2.792 0-3.908 2.233-3.35 4.467 0 0.558 0.558 1.117 0.559 1.675 0.558 1.117 0 2.233-0.559 2.791-0.558 0.558-2.233 0.558-2.791-0.558-1.117-1.117-1.675-2.233-2.234-3.908-0.558-1.117-1.675-2.233-2.791-2.792-1.117-0.558-2.233-0.558-3.35 0-0.558 0-0.558 0.558-1.117 0.558-1.117 1.117-2.792 1.675-4.466 1.117-0.558 0-1.675 0-1.675 0.558-0.558 0.558-0.558 1.675 0 2.234 1.117 1.117 0.558 2.233 0.558 3.908 0 2.233-1.675 3.35-3.908 2.233-0.558-0.558-1.117-0.558-1.675-1.117-0.558 0-0.558-0.558-0.558-1.116-0.558-0.558-0.558-1.675-1.117-2.792-1.117 0.558-2.233 0.558-3.35 1.117-0.558 0-1.117 0.558-1.675 0.558-1.675 0-2.233 0-2.791-1.675-0.558-1.675-1.675-1.675-2.792-2.233-2.233-0.558-5.025-0.558-7.258-1.675h-0.558c-2.233-1.675-4.467-1.675-7.258-1.675-1.675 0-3.35 0.558-5.025 0.558-1.675 0-2.792 0.558-3.908 1.675-0.558 0.558-1.117 1.117-1.675 1.117-0.558-0.558-0.558-1.117-1.117-1.675v-0.558c0-0.558-0.558-1.117-1.116-0.559-1.117 0.558-2.233-0.558-3.35-1.116-0.558-0.558-1.675-1.675-1.675-2.792-0.558-0.558-1.117-1.117-1.675-1.116-1.117 0-2.792-0.558-3.908-0.559-0.558 0-1.117 0-1.117-0.558-0.558-0.558-1.117-0.558-2.233-0.558-0.558 0-0.558-0.558-1.117-0.559 1.117 1.117 1.675 2.233 2.233 3.35 0 0.558 0.558 0.558 0.559 1.117 0.558 1.117 0 1.675-1.675 1.675-1.117 0-1.117 0-1.675 0.558 0 1.117 0 1.675 0 2.792 0 0.558 0 1.117-1.117 1.675 0 0-0.558 0-0.558 0.558-0.558 0.558-0.558 1.117 0 1.675 1.675 1.117 2.792 1.675 4.466 2.233 1.675 0 1.675 1.117 2.234 2.233 0.558 1.117 0 1.675-0.559 2.792-1.117 1.117-2.233 2.233-3.35 3.35-1.675 0.558-2.792 2.233-4.466 2.233-1.117 0-2.233-0.558-2.792-1.675-0.558-2.792-0.558-5.025 0.559-7.816 0-0.558 0.558-1.117 0-1.675-5.025 0-5.025-1.117-5.025-1.675 0-1.117 0.558-1.675 0.558-2.792 0.558-1.117 0-1.675-1.675-2.233-0.558 0-1.117 0-1.675 0-0.558 0-0.558-0.558-1.675-0.558 1.117-0.558 1.675-0.558 2.792-1.117-0.558-2.233-1.117-3.908-2.792-5.025-0.558-0.558-1.117-1.117-1.116-2.233 0-1.675-1.117-2.792-1.675-3.908-1.117-1.675-3.35-2.233-5.025-2.233-1.675-0.558-2.792-0.558-4.467-1.117-1.675-0.558-3.35-2.233-5.024-2.792-0.558-0.558-1.117-1.117-2.234-1.674-2.233-1.117-3.908-2.792-5.583-4.467-1.117-0.558-1.675-1.675-2.791-2.233-1.117-1.117-1.675-2.233-2.792-2.792-1.117-1.117-2.233-2.233-3.908-3.35-1.675-1.117-2.792-2.792-4.467-4.466-1.117-1.675-2.792-2.792-4.466-3.908-0.558 0-1.117 0-1.675 0-0.558 0-1.117 0.558-1.675 0.558-1.675 0.558-2.792 1.675-4.467 2.233 0.558-0.558 0.558-0.558 0-1.675-0.558-0.558-1.117-1.117-1.674-1.116-1.117 0-2.233 0-3.35 0-2.233 0-4.467 0.558-6.7 0.558-1.675 0-3.908 0.558-5.583 1.117 0.558 1.117 0.558 1.675 1.116 2.791-1.117 0.558-2.233 0.558-3.35 0.558-0.558 0-1.675 0.558-2.233 1.117-0.558 0-0.558 0.558-1.116 0-1.117-0.558-2.233 0-3.35 0.558h-0.559c0 0 0-0.558 0.559-0.558 0.558-0.558 1.117-1.117 1.675-1.675 0.558-0.558 1.117-0.558 2.233-1.117-0.558-0.558-0.558-1.117-0.558-1.116-0.558-0.558-1.117-0.558-1.675 0-0.558 0.558-1.117 1.117-1.675 1.675-0.558 0.558-1.117 0.558-1.675 0-0.558-0.558-0.558-1.117 0-1.675 0-0.558 0.558-1.117 1.116-1.675 0.558-0.558 0.558-1.117 1.117-1.675-1.117-1.117-1.675-2.233-2.792-2.792-1.675-1.117-3.35-2.792-4.466-4.466-1.117-2.233-2.792-3.908-5.025-5.025-0.558-0.558-1.117-1.117-1.675-1.675-0.558-0.558-0.558-0.558-1.116-1.117-1.675 0.558-2.792 1.675-4.467 2.234-0.558 0-0.558 0.558-1.117 1.116-0.558 1.117-1.675 1.117-2.791 1.117-0.558 0-1.117-0.558-0.558-1.117 0.558-1.117 1.117-2.233 2.791-1.675 0 0 0.558 0 0.558-0.558 1.117-1.117 2.233-2.792 3.909-3.908-0.558-1.675-1.675-2.792-2.234-3.908-0.558-0.558-0.558-1.117-0.558-2.234 0-0.558 0-0.558-0.558-1.116 0 0-0.558 0-1.117 0.558-0.558 0.558-1.675 1.117-2.791 0 0-0.558 0-1.117 0.558-1.675l0.558-0.558c1.675-0.558 1.675-2.233 1.675-3.908v-0.559c-0.558-1.117-0.558-1.675 0.558-2.791 1.675-1.117 3.35-3.35 3.909-5.025 0.558-1.117 1.675-1.675 2.791-2.792 1.117-1.117 2.233-2.233 2.792-3.908h0.558c2.233 0.558 2.792-1.117 3.908-2.791 0-0.558 0-1.117 0.559-1.117 1.117-1.117 1.117-2.233 0.558-3.908 0-0.558-0.558-1.675-0.558-2.233 0-0.558 0-0.558-0.559-1.117-1.675-1.117-1.675-2.233 0-3.35 1.117-0.558 1.117-1.675 1.675-2.233 0.558-1.117 0.558-2.233 0.559-3.908-0.558-1.675-0.558-3.908-1.117-5.583-0.558-2.233-1.117-5.025-1.675-7.259 0-0.558 0-0.558 0-1.116 0-1.675 0-2.792-0.558-4.467-0.558-0.558-0.558-1.675-0.559-2.233-0.558-1.675-1.117-2.792-2.791-3.35-1.675-1.117-3.908-1.675-5.583-2.791-0.558-0.558-1.117 0-1.675 0.558-0.558 1.117-1.675 2.233-2.234 3.35-0.558 0.558-1.117 1.675-1.675 2.791-1.117 1.117-3.35 2.233-5.024 0.559-0.558-1.117-1.117-1.675 0-2.792 1.117-1.675 2.233-3.35 3.908-4.466 0.558-0.558 1.117-1.675 1.675-2.234 0.558-1.117 0.558-2.233 0.558-3.35-0.558-2.233-1.117-4.467-1.117-7.258 0-2.792 0-5.025 0.559-7.816 0.558-1.117 0.558-2.792 1.116-3.908 0-0.558 0.558-1.675 1.117-2.233 1.117-1.117 2.233-2.233 2.792-3.909 0.558-1.675 1.675-3.35 1.675-5.024 0-0.558 0.558-1.117 0.558-1.675 0-0.558 0.558-1.675 0.558-2.234-0.558-1.675 0-2.792 0.558-3.908 0.558-1.117 1.117-2.792 1.675-3.908 1.117-2.233 1.117-5.025 3.35-7.258 0.558-1.117 1.117-2.233 1.675-3.35 0.558-2.233 1.675-3.908 2.792-5.583 0.558-0.558 0.558-0.558 0.558-1.117 0.558-1.675 1.675-3.35 2.792-5.025 1.117-1.675 1.117-3.35 1.675-5.024 0-0.558 0-1.117 0.558-1.675 1.675-1.675 1.117-3.908 0.558-6.142-1.117-2.792-1.675-5.583-1.116-8.374 0-0.558 0-1.117 0.558-1.117 0.558-1.117 0.558-1.675 1.117-2.792v-0.558c1.117-1.117 2.233-2.792 3.908-3.35 2.233-1.117 4.467-1.675 7.258-2.233 2.233 0 4.467-1.117 6.141-3.35 0-0.558 0.558-0.558 1.117-1.117l0.558-0.558c0.558-1.117 1.117-1.675 1.675-2.233 1.117-1.117 2.233-2.792 3.35-3.908 1.117-1.117 2.233-2.792 3.908-4.467l0.559-0.558c1.117-1.117 2.233-2.233 3.349-2.792 1.117-1.117 2.233-2.233 3.35-3.35 1.117-1.117 1.675-2.233 2.792-3.35 1.117-0.558 2.233-1.675 3.35-2.791 1.117-1.117 2.233-2.233 2.791-2.792 1.117-1.117 2.792-2.233 3.909-2.791 1.117-0.558 2.233-1.117 2.791-2.792 0.558-1.675 1.117-2.792 1.675-4.466 0-1.117 0.558-2.233 1.117-3.35 0.558 0 1.117 0 2.233-0.558-0.558-0.558-1.117-0.558-1.117-1.117 0-0.558 0.558-1.117 0.559-1.117 0-0.558 0.558-1.117 0.558-1.675 0 0 0.558 0 0.558-0.558 0 0 0.558 0 0.559-0.558-1.117 0.558-1.675 0-2.234-0.559 0.558 0.558 1.117 0.558 2.234 1.117 0 0 0.558 0 0.558-0.558 0-0.558 0-1.117 0-1.117 0 0-0.558 0-1.117 0-0.558 0-1.117 0.558-1.675 0.558zM182.097 295.292c0-0.558-0.558-0.558-0.559-1.117-0.558-1.117 0-1.675 0.559-2.233 0.558-0.558 1.117-0.558 2.233-0.558 1.117 0.558 1.675 1.117 1.675 2.233 0 0.558 0 1.675 0 2.233 0.558 2.233 0.558 2.233 2.791 2.233 1.117 0 2.233 0 3.35 0 2.233-0.558 4.467-1.675 6.7-2.233 2.233-0.558 4.467-1.117 6.7-1.675 0.558 0 1.117 0 2.233 0 2.233 0.558 3.908 0 5.583-1.117 0.558-0.558 1.675-0.558 2.233-1.116 1.117-0.558 2.233-0.558 3.35-1.117 2.792-1.675 5.583-2.792 7.817-4.466 1.675-1.117 3.35-2.233 5.024-3.35 1.675-1.117 3.35-2.233 5.025-3.35 1.117-0.558 2.792-1.675 3.908-2.792 2.233-1.675 3.908-3.35 6.142-4.466 1.117-0.558 1.675-1.117 2.233-1.675 1.117-0.558 1.675-1.675 2.792-2.233 0.558-0.558 1.117-1.117 2.233-1.675 0.558-0.558 0.558-0.558 0.558-1.117 1.675-1.117 3.35-3.35 4.467-5.025 1.117-1.117 2.233-2.233 3.35-3.908 1.675-1.675 2.792-3.908 4.466-6.141 1.117-1.117 2.233-2.792 2.792-3.909 1.117-2.233 2.233-4.467 3.908-6.141v-0.558c1.117-2.233 2.233-4.467 3.35-6.7 1.675-2.792 2.792-6.141 4.466-8.933 0.558-1.117 1.117-2.233 1.117-3.35 1.117-2.233 1.675-4.467 2.233-6.7 0-0.558 0-0.558 0.559-1.116 1.675-3.35 2.792-6.7 3.349-10.608 0.558-2.233 1.117-4.467 1.675-6.7 1.117-3.35 1.117-6.141 1.675-9.491 0.558-2.233 0.558-5.025 0.559-7.258 0.558-3.35 0.558-7.258 0-10.608 0-2.792-0.558-6.141-0.559-8.933 0-2.792-0.558-5.025-1.116-7.817-0.558-2.792-1.117-5.025-1.675-7.816-1.117-2.233-1.675-4.467-2.234-7.258-0.558-2.233-1.675-3.908-1.674-6.142 0-1.675-0.558-3.35-2.234-3.908-1.675-0.558-2.792-1.117-4.466-2.233-3.35-2.233-5.025-5.025-4.467-8.375 0-1.675 0.558-3.908 1.117-5.583 0.558-1.675 1.117-3.35 0-4.467-0.558-1.675-1.675-2.792-2.233-3.908-1.117-1.675-1.675-2.792-2.792-3.908-1.117-2.233-2.233-4.467-3.908-6.141-2.233-2.792-3.908-5.583-6.7-7.817l-0.558-0.558c-1.675-2.233-3.35-4.467-5.583-6.142-1.117-1.117-2.233-2.233-3.35-2.791-0.558-0.558-1.117-1.117-2.233-1.675-1.675-1.117-3.35-1.675-4.467-2.792-1.675-1.675-3.908-2.792-5.583-3.908 0 0-0.558 0-0.558-0.558-2.233-1.117-3.908-1.675-6.142-2.792-2.233-1.117-4.467-1.675-6.7-1.675-0.558 0-0.558 0-1.116 0-0.558-0.558-1.675-0.558-2.233-0.558-0.558 0-0.558 0-1.117 0-1.117-0.558-2.792 0-3.908 0-2.233 0.558-4.467 0.558-6.7-0.558-2.792-1.117-5.025-2.233-7.258-3.35-1.675-1.117-2.792-2.233-4.467-3.35-3.35-2.792-6.7-6.141-10.608-8.933 0.558-2.792-0.558-3.35-2.791-3.35-1.117 0-2.233 0.558-3.35 1.117-0.558 0.558-0.558 0.558-1.117 1.116-1.675 1.117-2.792 2.792-4.466 3.909-2.792 1.675-3.908 1.117-6.142 0-0.558-0.558-1.117-1.117-1.675-1.675-1.117-1.117-2.233-2.792-2.791-3.909-1.117-2.233-3.35-2.233-5.583-2.233-1.117 0-2.792 0.558-3.908 0.558-2.233 0-4.467 1.117-5.584 2.792-1.117 1.675-2.233 3.35-3.908 5.025-0.558 0.558-1.675 1.117-2.233 2.233-1.117 1.117-2.233 1.117-3.35 0-0.558-0.558-1.117-0.558-1.675-1.117-0.558 0.558-1.117 1.117-1.117 1.675-0.558 1.117-1.117 2.233-1.674 3.909-0.558 1.675-1.675 3.35-2.792 4.466-0.558 0.558-0.558 0.558-1.117 1.117-0.558 1.117-2.233 1.675-3.35 1.675-1.117 1.117-2.233 2.792-2.791 3.908-0.558 1.117-1.117 2.233-1.675 3.908-0.558 0.558-0.558 1.675-1.117 2.233-0.558 1.117-0.558 1.675-0.558 2.792 0.558 1.675-0.558 2.233-2.233 2.791-1.117 0-1.117 0-1.675 1.117 0 1.675 0.558 2.792 1.116 4.467 0.558 0.558 1.117 1.675 1.117 2.233 0 1.117 0.558 1.675 1.675 2.233 0.558 0.558 1.117 1.117 1.675 1.117 0.558 0 0.558 0.558 1.117 0.558 0.558 0.558 1.117 0 1.116-0.558 0.558-1.675 1.117-3.35 1.117-5.025 0.558-2.233 0.558-3.908 1.116-6.142 0.558-1.117 1.117-1.675 1.675-2.233 0 0 0.558 0 1.117 0v0.559c-0.558 2.792-1.675 6.141-2.233 8.933-0.558 1.117-0.558 2.233-1.117 3.349 0 0.558-0.558 1.117-1.116 1.117-1.117 0.558-2.233 1.117-3.35 1.117-0.558 0-1.117 0-1.675 0-1.117-0.558-2.233-1.675-3.35-2.234-0.558-0.558-1.117-1.117-1.675-1.674-0.558-1.117-1.117-2.233-1.675-3.35-0.558-1.117-1.117-1.675-2.233-2.234-0.558-0.558-1.117-0.558-1.675-1.116-1.117-1.117-2.233-1.675-3.908-1.675-0.558 0-1.675 0-2.234 0-0.558 0-1.675 0.558-2.233 1.116-1.117 0.558-1.675 0.558-2.791 0-2.792-1.117-5.583-0.558-8.375 0.559-1.117 0.558-2.233 1.117-3.35 1.116-2.792 0-5.025 0-7.816 0-2.792 0-5.025-0.558-7.817-1.116-1.117 0-2.233 0-3.35 0-2.233 0.558-2.792 2.233-2.233 4.466 0.558 2.233 1.117 5.025 1.117 7.258 0 1.675 0 3.35 0 5.025 0 1.117 0 1.675 0 2.792 0 1.675-0.558 3.35-0.559 5.025-0.558 3.35-2.233 6.141-4.466 8.374-1.675 1.675-3.908 3.35-6.142 3.908-1.117 0.558-2.233 1.117-3.908 1.675-2.792 1.117-5.025 3.35-6.7 6.142-0.558 1.117-1.117 2.233-1.674 3.35-1.117 1.675-1.675 2.792-2.792 4.466-0.558 1.117-1.675 2.233-2.233 3.35-0.558 1.117-1.675 1.675-1.675 2.792-1.117 2.233-1.675 4.467-2.792 6.699-0.558 1.117-0.558 2.792-1.116 3.909-1.117 2.233-1.117 4.467-1.117 7.258 0 0.558 0 1.117 0 2.233 0 2.792-0.558 6.141-0.558 8.933 0 2.792 0 5.583 0.558 8.375 0 1.117 0 2.792 0 3.908 0 2.233 0.558 5.025 0.558 7.258 0 2.233 0 5.025 1.117 7.258v0.558c0.558 2.233 0.558 4.467 1.116 6.7 0 0.558 0 1.117 0.559 1.675 1.117 3.35 1.675 6.141 2.791 9.491 0.558 2.233 1.675 4.467 2.234 6.7 0.558 2.233 2.792 4.467 3.349 7.258v0c1.675 3.35 3.35 6.7 5.584 10.05 0.558 1.117 1.675 2.233 2.233 3.35 1.117 1.675 1.675 3.35 2.791 4.466 0.558 1.117 1.675 2.233 2.234 2.792 0.558 1.117 1.117 2.233 2.233 3.35 1.117 1.117 2.233 2.792 3.35 3.908 1.675 2.792 3.908 5.025 6.141 6.7 1.117 1.117 2.233 1.675 3.35 2.791 0.558 0.558 1.117 0.558 1.117 1.117 0.558 0.558 1.117 1.117 2.233 1.675 4.467 2.233 7.816 5.583 11.725 8.933 1.675 1.675 3.35 3.35 5.583 4.466 2.233 1.675 3.908 3.35 6.7 3.908 0 0 0.558 0 0.558 0.559 1.117 1.117 2.792 1.675 3.908 2.233 2.233 1.117 5.025 2.233 7.258 3.35 0.558 0.558 1.675 0.558 2.233 1.117 1.675 0.558 3.35 1.117 5.025 1.674 1.675 0.558 2.792 1.117 4.467 1.117h0.558c1.117 0.558 1.675 0.558 2.792 0 0.558 0 1.117 0 1.116 0.558 0 0.558 0.558 0.558 1.117 0.559 0.558 0 1.117 0 2.233 0 0.558-0.558 0.558-1.117 1.117-2.234 0.558 0.558 1.117 0.558 1.116 0.559 0.558 1.117 1.675 1.117 2.792 1.116h0.558c1.117 0 1.675 0 2.233-0.558 0-0.558 1.117-0.558 1.675-0.558 1.675 0.558 3.35 0.558 5.025 1.116 1.117 0.558 2.792 0.558 3.35-0.558 0.558-0.558 1.117-1.117 2.233-0.558 1.117 0.558 1.675 0.558 2.792 0 0.558 0 1.117 0 1.117 0 1.675 0.558 2.792 0.558 4.466 1.116 2.233 0.558 2.233 0.558 3.908-1.116 0.558-0.558 1.675-0.558 2.233 0 0.558 1.117 0.558 1.675 0.559 2.791 0.558 0 0.558 0 1.116-0.558 0-1.117 0.558-1.117 1.675-1.675 0.558 0.558 0.558 0.558 1.117 0.558 1.117 1.117 1.675 1.117 2.233-0.558 0-0.558 0-1.117 0.559-1.116 0.558 0 1.117 0.558 1.116 0.558 0.558 1.117 1.675 1.675 2.233 2.791 1.117 1.117 2.792 1.117 3.35 0 0.558-0.558 1.117-0.558 1.675-0.558 0-0.558 0-1.117 0-1.675 1.675 1.117 1.117 1.117 0.559 1.117zM89.417 34.559c1.675 0.558 2.792 0.558 3.349-0.558-1.117 0.558-2.233-0.558-3.349 0.558z" fill="#aa11e5" data-fill-palette-color="tertiary"></path></g><g transform="matrix(1,0,0,1,64,106.39789315181072)"><svg viewBox="0 0 192 147.20421369637856" height="147.20421369637856" width="192"><g><svg viewBox="0 0 192 147.20421369637856" height="147.20421369637856" width="192"><g><svg viewBox="0 0 192 147.20421369637856" height="147.20421369637856" width="192"><g transform="matrix(1,0,0,1,0,100.55752422722074)"><svg viewBox="0 0 192 46.64668946915782" height="46.64668946915782" width="192"><g><svg viewBox="0 0 192 46.64668946915782" height="46.64668946915782" width="192"><g><svg viewBox="0 0 192 26.444840860013144" height="26.444840860013144" width="192"><g transform="matrix(1,0,0,1,0,0)"><svg width="192" viewBox="2.809999942779541 -35.81999969482422 260.010009765625 35.81999969482422" height="26.444840860013144" data-palette-color="#2b2b2b"><path d="M13.6-32.4L13.6-6.47 22.85-6.47 22.85 0 9.28 0 2.81-6.47 2.81-25.93 9.28-32.4 13.6-32.4ZM19.31-11.55L19.31-17.97 34.13-17.97 34.13 0 24.56 0 24.56-11.55 19.31-11.55ZM23.34-25.93L15.31-25.93 15.31-32.4 28.47-32.4 34.13-25.93 34.13-22.68 23.34-22.68 23.34-25.93ZM66.67 0L56.13 0 56.13-19.46 40.77-19.46 40.77-22.68 44.02-25.93 60.2-25.93 66.67-19.46 66.67 0ZM42.94-15.09L54.42-15.09 54.42-10.6 48.85-10.6 48.85-6.05 54.42-6.05 54.42-3.2 51.19 0 42.94 0 38.6-4.27 38.6-10.77 42.94-15.09ZM82.71 0L71.89 0 71.89-25.93 82.71-25.93 82.71 0ZM88.81 0L88.81-19.46 84.42-19.46 84.42-22.51 87.81-25.93 96.16-25.93 99.63-22.46 99.63 0 88.81 0ZM105.73 0L105.73-19.46 101.34-19.46 101.34-22.46 104.66-25.93 111.25-25.93 116.52-20.61 116.52 0 105.73 0ZM131.97-25.93L131.97 0 127.65 0 121.18-6.47 121.18-19.46 127.65-25.93 131.97-25.93ZM149.31-10.4L133.68-10.4 133.68-14.92 139.37-14.92 139.37-19.46 133.68-19.46 133.68-25.93 142.84-25.93 149.31-19.46 149.31-10.4ZM144.96 0L133.68 0 133.68-6.05 148.19-6.05 148.19-3.25 144.96 0ZM154.21 0L154.21-32.4 165-32.4 165-17.92 174.97-17.92 174.97-11.55 165-11.55 165 0 154.21 0ZM172.38-25.93L166.71-25.93 166.71-32.4 183.17-32.4 183.17-21.66 172.38-21.66 172.38-25.93ZM201.97-6.47L201.97 0 192.39 0 186.34-6.05 186.34-35.82 197.13-35.82 197.13-6.47 201.97-6.47ZM215.29-25.93L215.29 0 210.97 0 204.5-6.47 204.5-19.46 210.97-25.93 215.29-25.93ZM232.63-10.4L217-10.4 217-14.92 222.69-14.92 222.69-19.46 217-19.46 217-25.93 226.16-25.93 232.63-19.46 232.63-10.4ZM228.28 0L217 0 217-6.05 231.5-6.05 231.5-3.25 228.28 0ZM234.33-25.93L245.56-25.93 262.82 0 251.62 0 234.33-25.93ZM255.35-13.96L249.79-22.34 251.62-25.93 262.82-25.93 255.35-13.96ZM247.32-3.64L245.56 0 234.33 0 241.54-12.35 247.32-3.64Z" opacity="1" transform="matrix(1,0,0,1,0,0)" fill="#2b2b2b" class="undefined-text-0" data-fill-palette-color="primary" id="text-0"></path></svg></g></svg></g><g transform="matrix(1,0,0,1,0,30.3037778176697)"><svg viewBox="0 0 192 16.342911651488123" height="16.342911651488123" width="192"><g transform="matrix(1,0,0,1,0,0)"><svg width="192" viewBox="0.75 -35.5 523.969970703125 44.599998474121094" height="16.342911651488123" data-palette-color="#f4a424"><path d="M26 0.1L26 0.1Q21.65 0.1 21.3-1.3L21.3-1.3 19.65-7.75 11.7-7.75 10.25-1.55Q9.95 0 5.45 0L5.45 0Q3.05 0 1.9-0.28 0.75-0.55 0.75-0.7L0.75-0.7 9.6-34.55Q9.6-34.95 16.45-34.95 23.3-34.95 23.3-34.55L23.3-34.55 31.95-0.65Q31.95-0.3 29.65-0.1 27.35 0.1 26 0.1ZM15.65-24.45L12.95-14.1 18.2-14.1 15.95-24.45 15.65-24.45ZM45.01-2.15L45.01-34.85Q45.01-35.45 49.33-35.45 53.66-35.45 53.66-34.8L53.66-34.8 53.66-25.1Q55.81-25.5 56.71-25.5L56.71-25.5Q67.21-25.5 67.21-13.45L67.21-13.45Q67.21-6.75 63.98-3.13 60.76 0.5 54.83 0.5 48.91 0.5 45.01-2.15L45.01-2.15ZM55.31-17.7L55.31-17.7Q54.46-17.7 53.66-17.15L53.66-17.15 53.66-7.6Q54.36-7.3 55.13-7.3 55.91-7.3 56.71-7.9L56.71-7.9Q58.11-8.9 58.11-12.55L58.11-12.55Q58.11-17.7 55.31-17.7ZM89.84-1.35L89.84-1.35Q86.69 0.5 81.74 0.5 76.79 0.5 73.39-2.88 69.99-6.25 69.99-12.23 69.99-18.2 73.26-21.85 76.54-25.5 81.54-25.5 86.54-25.5 89.26-22.95 91.99-20.4 91.99-16.75L91.99-16.75Q91.99-8.65 82.69-8.65L82.69-8.65 79.24-8.65Q79.24-7.15 80.06-6.58 80.89-6 82.49-6L82.49-6Q85.99-6 89.14-7.6L89.14-7.6Q89.19-7.65 89.59-6.9L89.59-6.9Q90.79-4.75 90.79-3.28 90.79-1.8 89.84-1.35ZM83.59-15.8L83.59-15.8Q83.59-17.9 81.54-17.9L81.54-17.9Q80.59-17.9 79.91-17.32 79.24-16.75 79.24-15.65L79.24-15.65 79.24-14.1 81.94-14.1Q83.59-14.1 83.59-15.8ZM106.92-18L106.92-0.3Q106.92 0.3 102.72 0.3L102.72 0.3Q97.72 0.1 97.72-0.35L97.72-0.35 97.72-18.05 95.17-18.05Q94.17-18.05 94.17-21.5L94.17-21.5Q94.17-22.4 94.34-23.7 94.52-25 95.07-25L95.07-25 97.72-25 97.72-29.4Q97.72-30.4 101.94-30.4 106.17-30.4 106.17-29.6L106.17-29.6 106.17-26.4 106.22-25 110.47-25Q111.32-25 111.32-21.5 111.32-18 110.47-18L110.47-18 106.92-18ZM125.5-18L125.5-0.3Q125.5 0.3 121.3 0.3L121.3 0.3Q116.3 0.1 116.3-0.35L116.3-0.35 116.3-18.05 113.75-18.05Q112.75-18.05 112.75-21.5L112.75-21.5Q112.75-22.4 112.92-23.7 113.1-25 113.65-25L113.65-25 116.3-25 116.3-29.4Q116.3-30.4 120.52-30.4 124.75-30.4 124.75-29.6L124.75-29.6 124.75-26.4 124.8-25 129.05-25Q129.9-25 129.9-21.5 129.9-18 129.05-18L129.05-18 125.5-18ZM151.47-1.35L151.47-1.35Q148.32 0.5 143.37 0.5 138.42 0.5 135.02-2.88 131.62-6.25 131.62-12.23 131.62-18.2 134.9-21.85 138.17-25.5 143.17-25.5 148.17-25.5 150.9-22.95 153.62-20.4 153.62-16.75L153.62-16.75Q153.62-8.65 144.32-8.65L144.32-8.65 140.87-8.65Q140.87-7.15 141.7-6.58 142.52-6 144.12-6L144.12-6Q147.62-6 150.77-7.6L150.77-7.6Q150.82-7.65 151.22-6.9L151.22-6.9Q152.42-4.75 152.42-3.28 152.42-1.8 151.47-1.35ZM145.22-15.8L145.22-15.8Q145.22-17.9 143.17-17.9L143.17-17.9Q142.22-17.9 141.55-17.32 140.87-16.75 140.87-15.65L140.87-15.65 140.87-14.1 143.57-14.1Q145.22-14.1 145.22-15.8ZM168-14L168-0.05Q168 0.3 163.45 0.3L163.45 0.3Q158.9 0.2 158.9-0.1L158.9-0.1 158.9-16.7 157.55-16.7Q156.75-16.7 156.28-17.68 155.8-18.65 155.8-20.1L155.8-20.1Q155.8-25.5 159-25.5L159-25.5Q161.25-25.5 162.75-24.13 164.25-22.75 164.25-21L164.25-21Q165.3-23.05 167.08-24.28 168.85-25.5 170.7-25.5L170.7-25.5Q173.6-25.5 174.2-24L174.2-24Q174.35-23.6 174.35-22.83 174.35-22.05 173.88-20.05 173.4-18.05 172.9-17.15 172.4-16.25 172.3-16.25 172.2-16.25 171.38-16.63 170.55-17 169.9-17L169.9-17Q168-17 168-14L168-14ZM210.76-8.4L212.56-24.75Q212.56-25.2 215.31-25.2L215.31-25.2Q221.51-25.2 221.41-24.8L221.41-24.8 216.51-0.5Q216.36 0.3 210.96 0.3 205.56 0.3 205.41-0.5L205.41-0.5 203.36-11.7 200.81-0.5Q200.66 0.25 195.09 0.25 189.51 0.25 189.36-0.65L189.36-0.65 184.91-25Q184.76-25.3 189.21-25.3L189.21-25.3Q193.61-25.25 193.61-25.1L193.61-25.1 195.91-8.2 200.06-24.9Q200.16-25.2 203.36-25.2 206.56-25.2 206.66-24.9L206.66-24.9 210.76-8.4ZM227.54-18.15L227.54-18.15Q226.14-20.65 226.14-22.23 226.14-23.8 226.99-24.25L226.99-24.25Q229.84-25.5 234.82-25.5 239.79-25.5 241.84-23.18 243.89-20.85 243.89-16.3L243.89-16.3 243.89-8.4 245.59-8.4Q246.44-8.4 246.92-7.4 247.39-6.4 247.39-4.65 247.39-2.9 246.52-1.2 245.64 0.5 244.14 0.5L244.14 0.5Q241.44 0.5 239.79-0.95L239.79-0.95Q239.04-1.55 238.64-2.4L238.64-2.4Q236.34 0.5 231.49 0.5L231.49 0.5Q227.84 0.5 225.34-2.1 222.84-4.7 222.84-8.25L222.84-8.25Q222.84-16.4 232.59-16.4L232.59-16.4 235.34-16.4 235.34-16.9Q235.34-18.2 234.92-18.57 234.49-18.95 232.94-18.95L232.94-18.95Q231.04-18.95 227.54-18.15ZM231.54-8.95L231.54-8.95Q231.54-7.85 232.14-7.28 232.74-6.7 233.67-6.7 234.59-6.7 235.34-7.45L235.34-7.45 235.34-11.3 233.94-11.3Q231.54-11.3 231.54-8.95ZM257.17-2L248.67-24.75Q248.67-25.3 253.25-25.3 257.82-25.3 257.97-24.8L257.97-24.8 261.57-13 265.02-24.9Q265.22-25.3 268.12-25.3L268.12-25.3Q274.77-25.3 274.47-24.65L274.47-24.65 262.72 8.8Q262.67 9.1 260 9.1 257.32 9.1 255.02 8.93 252.72 8.75 252.82 8.5L252.82 8.5 257.17-2ZM298.53-18L298.53-0.3Q298.53 0.3 294.33 0.3L294.33 0.3Q289.33 0.1 289.33-0.35L289.33-0.35 289.33-18.05 286.78-18.05Q285.78-18.05 285.78-21.5L285.78-21.5Q285.78-22.4 285.95-23.7 286.13-25 286.68-25L286.68-25 289.33-25 289.33-29.4Q289.33-30.4 293.55-30.4 297.78-30.4 297.78-29.6L297.78-29.6 297.78-26.4 297.83-25 302.08-25Q302.93-25 302.93-21.5 302.93-18 302.08-18L302.08-18 298.53-18ZM307.78-2.95Q304.66-6.4 304.66-12.5 304.66-18.6 307.78-22.05 310.91-25.5 316.21-25.5 321.51-25.5 324.61-22.05 327.71-18.6 327.71-12.5 327.71-6.4 324.61-2.95 321.51 0.5 316.21 0.5 310.91 0.5 307.78-2.95ZM316.23-17.15Q313.41-17.15 313.41-12.55 313.41-7.95 316.23-7.95 319.06-7.95 319.06-12.55 319.06-17.15 316.23-17.15ZM342.07-9L342.07-9Q346.12-6.55 348.47-6.55L348.47-6.55Q349.97-6.55 349.97-7.6L349.97-7.6Q349.97-8.35 347.37-9.55L347.37-9.55Q341.12-12.1 341.12-17.9L341.12-17.9Q341.12-21.6 343.82-23.55 346.52-25.5 350.29-25.5 354.07-25.5 356.69-24.7 359.32-23.9 359.32-22.6L359.32-22.6Q359.32-21.5 358.24-19.7 357.17-17.9 356.77-17.75L356.77-17.75Q354.62-18.95 352.12-18.95L352.12-18.95Q350.77-18.95 350.77-18L350.77-18Q350.77-17.4 351.29-16.98 351.82-16.55 353.22-15.93 354.62-15.3 355.54-14.8 356.47-14.3 357.62-13.4L357.62-13.4Q360.02-11.5 360.02-8.45L360.02-8.45Q360.02-4.45 357.37-1.98 354.72 0.5 349.37 0.5L349.37 0.5Q345.82 0.5 342.92-0.7 340.02-1.9 340.02-4L340.02-4Q340.02-5.4 340.69-6.95 341.37-8.5 342.07-9ZM372.05-16.55L372.05-0.35Q372.05 0.1 367.87 0.1 363.7 0.1 363.7-0.6L363.7-0.6 363.7-34.85Q363.7-35.2 365.25-35.35 366.8-35.5 367.85-35.5L367.85-35.5Q372.05-35.5 372.05-34.6L372.05-34.6 372.05-24.6Q374.85-25.45 376.3-25.45L376.3-25.45Q380.1-25.45 382.3-23.43 384.5-21.4 384.5-15.9L384.5-15.9 384.5-0.4Q384.5 0.05 380.6 0.05L380.6 0.05Q376.2-0.1 376.2-0.45L376.2-0.45 376.2-15.15Q376.2-17.6 374.6-17.6L374.6-17.6Q373.5-17.6 372.05-16.55L372.05-16.55ZM391.1-2.95Q387.97-6.4 387.97-12.5 387.97-18.6 391.1-22.05 394.22-25.5 399.52-25.5 404.82-25.5 407.92-22.05 411.02-18.6 411.02-12.5 411.02-6.4 407.92-2.95 404.82 0.5 399.52 0.5 394.22 0.5 391.1-2.95ZM399.55-17.15Q396.72-17.15 396.72-12.55 396.72-7.95 399.55-7.95 402.37-7.95 402.37-12.55 402.37-17.15 399.55-17.15ZM438.9-8.4L440.7-24.75Q440.7-25.2 443.45-25.2L443.45-25.2Q449.65-25.2 449.55-24.8L449.55-24.8 444.65-0.5Q444.5 0.3 439.1 0.3 433.7 0.3 433.55-0.5L433.55-0.5 431.5-11.7 428.95-0.5Q428.8 0.25 423.23 0.25 417.65 0.25 417.5-0.65L417.5-0.65 413.05-25Q412.9-25.3 417.35-25.3L417.35-25.3Q421.75-25.25 421.75-25.1L421.75-25.1 424.05-8.2 428.2-24.9Q428.3-25.2 431.5-25.2 434.7-25.2 434.8-24.9L434.8-24.9 438.9-8.4ZM464.29-2.95Q461.16-6.4 461.16-12.5 461.16-18.6 464.29-22.05 467.41-25.5 472.71-25.5 478.01-25.5 481.11-22.05 484.21-18.6 484.21-12.5 484.21-6.4 481.11-2.95 478.01 0.5 472.71 0.5 467.41 0.5 464.29-2.95ZM472.74-17.15Q469.91-17.15 469.91-12.55 469.91-7.95 472.74-7.95 475.56-7.95 475.56-12.55 475.56-17.15 472.74-17.15ZM489.89-0.6L489.89-18.35 487.44-18.35Q486.69-18.35 486.69-21.68 486.69-25 487.44-25L487.44-25 489.89-25 489.89-26.1Q489.89-31.4 492.12-33.43 494.34-35.45 498.34-35.45 502.34-35.45 505.39-34L505.39-34Q505.79-33.85 505.79-32.93 505.79-32 504.94-29.95 504.09-27.9 503.49-27.6L503.49-27.6Q501.79-28.65 499.99-28.65L499.99-28.65Q498.04-28.65 498.04-26.05L498.04-26.05 498.04-25 502.19-25Q503.09-25 503.09-21.8L503.09-21.8Q503.09-18.3 501.94-18.3L501.94-18.3 498.74-18.3 498.74-0.6Q498.74 0 494.32 0 489.89 0 489.89-0.6L489.89-0.6ZM508.82-0.6L508.82-18.35 506.37-18.35Q505.62-18.35 505.62-21.68 505.62-25 506.37-25L506.37-25 508.82-25 508.82-26.1Q508.82-31.4 511.05-33.43 513.27-35.45 517.27-35.45 521.27-35.45 524.32-34L524.32-34Q524.72-33.85 524.72-32.93 524.72-32 523.87-29.95 523.02-27.9 522.42-27.6L522.42-27.6Q520.72-28.65 518.92-28.65L518.92-28.65Q516.97-28.65 516.97-26.05L516.97-26.05 516.97-25 521.12-25Q522.02-25 522.02-21.8L522.02-21.8Q522.02-18.3 520.87-18.3L520.87-18.3 517.67-18.3 517.67-0.6Q517.67 0 513.25 0 508.82 0 508.82-0.6L508.82-0.6Z" opacity="1" transform="matrix(1,0,0,1,0,0)" fill="#f4a424" class="undefined-text-1" data-fill-palette-color="secondary" id="text-1"></path></svg></g></svg></g></svg></g></svg></g><g transform="matrix(1,0,0,1,23.891214538590503,0)"><svg viewBox="0 0 144.217570922819 96.69858726956419" height="96.69858726956419" width="144.217570922819"><g><svg xmlns="http://www.w3.org/2000/svg" xmlns:xlink="http://www.w3.org/1999/xlink" version="1.1" x="0" y="0" viewBox="4.999077320098877 20.56300163269043 90.00082397460938 60.34599304199219" enable-background="new 0 0 100 100" xml:space="preserve" height="96.69858726956419" width="144.217570922819" class="icon-icon-0" data-fill-palette-color="accent" id="icon-0"><path d="M94.455 44.581c-0.068-0.212-0.112-0.435-0.124-0.66-0.174-2.529-0.657-4.665-1.033-6.007-0.031-0.101-0.085-0.276-0.129-0.458-1.941-7.555-4.847-11.636-4.876-11.676-0.324-0.448-0.503-0.996-0.505-1.55-0.024-0.31-0.435-3.667-7.451-3.667h-4.541c-3.135 0-5.42 0.683-6.606 1.972-0.659 0.714-1.662 1.016-2.593 0.776-3.737-0.938-8.337-1.826-16.643-1.967-8.218 0.141-12.822 1.029-16.56 1.967-0.938 0.239-1.938-0.062-2.593-0.778-1.184-1.288-3.469-1.97-6.602-1.97h-4.548c-7.021 0-7.429 3.352-7.454 3.734-0.046 0.812-0.457 1.55-1.072 2.026-0.808 1.412-2.778 5.218-4.307 11.15-0.828 3.308-1.064 5.381-1.177 6.377-1.538 9.966-0.515 27.87 5.293 34.647 1.394 1.626 2.925 2.412 4.68 2.412 3.635 0 4.001-0.918 5.603-6.455 0.391-1.348 0.825-2.852 1.387-4.497 3.035-8.931 7.791-9.537 18.22-10.863l1.379-0.178c2.703-0.269 4.998-0.403 7.747-0.449 2.847 0.049 5.139 0.181 7.759 0.441l1.455 0.186c10.427 1.326 15.188 1.933 18.223 10.863 0.562 1.646 0.996 3.154 1.39 4.507 1.602 5.527 1.967 6.445 5.603 6.445 1.755 0 3.286-0.786 4.678-2.412C94.753 71.856 95.847 54.482 94.455 44.581zM25.713 55.788c-6.97 0-12.625-5.654-12.625-12.625 0-6.97 5.654-12.625 12.625-12.625 6.973 0 12.622 5.655 12.622 12.625C38.335 50.134 32.686 55.788 25.713 55.788zM74.282 30.537c2.505 0 4.544 2.032 4.544 4.544 0 2.511-2.039 4.543-4.544 4.543-2.507 0-4.548-2.032-4.548-4.543C69.734 32.569 71.775 30.537 74.282 30.537zM66.201 47.706c-2.518 0-4.549-2.03-4.549-4.543 0-2.51 2.031-4.541 4.549-4.541 2.505 0 4.539 2.031 4.539 4.541C70.74 45.676 68.706 47.706 66.201 47.706zM74.282 55.788c-2.507 0-4.548-2.038-4.548-4.547 0-2.507 2.041-4.544 4.548-4.544 2.505 0 4.544 2.037 4.544 4.544C78.826 53.75 76.787 55.788 74.282 55.788zM82.355 47.706c-2.504 0-4.541-2.03-4.541-4.543 0-2.51 2.037-4.541 4.541-4.541 2.518 0 4.551 2.031 4.551 4.541C86.906 45.676 84.873 47.706 82.355 47.706z" fill="#f49d24" data-fill-palette-color="accent"></path><path d="M30.981 40.338h-2.446v-2.445c0-1.56-1.265-2.822-2.822-2.822-1.555 0-2.822 1.262-2.822 2.822v2.445h-2.449c-1.56 0-2.825 1.267-2.825 2.825 0 1.562 1.265 2.822 2.825 2.822h2.449v2.446c0 1.56 1.267 2.824 2.822 2.824 1.558 0 2.822-1.264 2.822-2.824v-2.446h2.446c1.558 0 2.825-1.261 2.825-2.822C33.806 41.605 32.539 40.338 30.981 40.338z" fill="#f49d24" data-fill-palette-color="accent"></path></svg></g></svg></g><g></g></svg></g></svg></g></svg></g></svg></g></svg><rect width="320" height="360" fill="none" stroke="none" visibility="hidden"></rect></g></svg></g></svg>